<svg width="25" height="20" viewBox="0 0 25 20" fill="none" xmlns="http://www.w3.org/2000/svg">
<g id="Group">
<path id="Vector" d="M2.13636 19.0022H5.95456V9.72949L3.45434 5.36365L0.5 5.63857V17.3659C0.5 18.2699 1.23228 19.0022 2.13636 19.0022Z" fill="#0085F7"/>
<path id="Vector_2" d="M19.0447 19.0022H22.8629C23.767 19.0022 24.4992 18.2699 24.4992 17.3659V5.63857L21.5492 5.36365L19.0447 9.72949V19.0022H19.0447Z" fill="#00A94B"/>
<path id="Vector_3" d="M19.0453 2.63856L16.8025 6.91839L19.0453 9.72948L24.4999 5.63856V3.45676C24.4999 1.43448 22.1912 0.279483 20.5726 1.49312L19.0453 2.63856Z" fill="#FFBC00"/>
<path id="Vector_4" fill-rule="evenodd" clip-rule="evenodd" d="M5.95407 9.72948L3.81689 5.21494L5.95407 2.63855L12.4995 7.54763L19.0449 2.63855V9.72948L12.4995 14.6386L5.95407 9.72948Z" fill="#FF4131"/>
<path id="Vector_5" d="M0.5 3.45676V5.63856L5.95456 9.72948V2.63856L4.42728 1.49312C2.80864 0.279483 0.5 1.43448 0.5 3.45676H0.5Z" fill="#E51C19"/>
</g>
</svg>
