<svg width="19" height="19" viewBox="0 0 19 19" fill="none" xmlns="http://www.w3.org/2000/svg">
<g id="Group">
<path id="Vector" d="M3.21231 0.754181C2.54551 0.866333 1.9424 1.18036 1.45541 1.66635C1.09579 2.02897 0.942197 2.25327 0.743656 2.72057C0.485177 3.31497 0.500162 2.93366 0.500162 9.70014C0.500162 16.3208 0.49267 16.0591 0.706195 16.6199C0.852292 17.0124 1.07706 17.3638 1.39547 17.6965C1.84874 18.1713 2.33573 18.4554 2.98006 18.6274L3.29098 18.7096L9.26595 18.7246C13.5177 18.7321 15.3496 18.7246 15.6118 18.6947C16.391 18.605 17.0203 18.3096 17.5597 17.775C17.9606 17.3788 18.1966 16.9937 18.3914 16.4143L18.5 16.0965V9.74126V3.386L18.4138 3.09067C18.0992 2.0028 17.2825 1.1841 16.1774 0.836426L15.8403 0.73175L9.62183 0.728012C6.20167 0.724274 3.3172 0.735489 3.21231 0.754181ZM7.20187 7.49449C8.46429 8.70573 9.48697 9.71135 9.48322 9.72631C9.47573 9.74126 8.43807 10.7469 7.17565 11.9619L4.87557 14.1712L4.27994 13.5993C3.95403 13.289 3.68432 13.0123 3.68806 12.9937C3.68806 12.9712 4.44851 12.231 5.37379 11.3488C6.29532 10.4628 7.05203 9.73004 7.05577 9.71883C7.05577 9.70387 6.29907 8.96367 5.37005 8.07394C4.44477 7.1842 3.68432 6.44774 3.68432 6.43653C3.68432 6.38793 4.83061 5.27389 4.86807 5.28136C4.8943 5.28884 5.94319 6.28325 7.20187 7.49449ZM15.372 13.4796V14.1712H13.1993H11.0266V13.4796V12.788H13.1993H15.372V13.4796Z" fill="#C92071"/>
</g>
</svg>
